# xmcd
#
# Track frame offsets:
#	150
#	10106
#	20188
#	31007
#	43599
#	53237
#
# Disc length: 870 seconds
#
# Revision: 0
# Processed by: cddbd v1.5.2PL0 Copyright (c) Steve Scherf et al.
# Submitted via: EasyCDDAExtractor 11.9.9.666
#
DISCID=41036406
DTITLE=Cousin Chris - Last Year's Youth in G
DYEAR=1900
DGENRE=Acoustic Blues
TTITLE0=Not Free
TTITLE1=My Self Home
TTITLE2=How I Can Be
TTITLE3=Too Slow
TTITLE4=Out of Tune
TTITLE5=Going In
EXTD=
EXTT0=
EXTT1=
EXTT2=
EXTT3=
EXTT4=
EXTT5=
PLAYORDER=
